<mxfile host="Electron" agent="Mozilla/5.0 (X11; Linux x86_64) AppleWebKit/537.36 (KHTML, like Gecko) draw.io/26.0.9 Chrome/128.0.6613.186 Electron/32.2.5 Safari/537.36" version="26.0.9">
  <diagram name="Seite-1" id="D3Ebed-wzU0g2HKTw54o">
    <mxGraphModel dx="1564" dy="916" grid="1" gridSize="10" guides="1" tooltips="1" connect="1" arrows="1" fold="1" page="1" pageScale="1" pageWidth="827" pageHeight="1169" math="0" shadow="0">
      <root>
        <mxCell id="0" />
        <mxCell id="1" parent="0" />
        <mxCell id="YUDjFduZvXWAR3VUE5b8-1" value="" style="rounded=0;whiteSpace=wrap;html=1;fillColor=#f5f5f5;fontColor=#333333;strokeColor=#666666;" vertex="1" parent="1">
          <mxGeometry x="280" y="600" width="80" height="80" as="geometry" />
        </mxCell>
        <mxCell id="YUDjFduZvXWAR3VUE5b8-2" value="" style="rounded=0;whiteSpace=wrap;html=1;fillColor=#f5f5f5;fontColor=#333333;strokeColor=#666666;" vertex="1" parent="1">
          <mxGeometry x="360" y="600" width="80" height="80" as="geometry" />
        </mxCell>
        <mxCell id="YUDjFduZvXWAR3VUE5b8-3" value="" style="rounded=0;whiteSpace=wrap;html=1;fillColor=#f5f5f5;fontColor=#333333;strokeColor=#666666;" vertex="1" parent="1">
          <mxGeometry x="360" y="680" width="80" height="80" as="geometry" />
        </mxCell>
        <mxCell id="YUDjFduZvXWAR3VUE5b8-4" value="" style="endArrow=none;html=1;rounded=0;entryX=0;entryY=0.5;entryDx=0;entryDy=0;" edge="1" parent="1" target="YUDjFduZvXWAR3VUE5b8-2">
          <mxGeometry width="50" height="50" relative="1" as="geometry">
            <mxPoint x="280" y="640" as="sourcePoint" />
            <mxPoint x="330" y="590" as="targetPoint" />
          </mxGeometry>
        </mxCell>
        <mxCell id="YUDjFduZvXWAR3VUE5b8-5" value="" style="endArrow=none;html=1;rounded=0;exitX=0;exitY=0.5;exitDx=0;exitDy=0;entryX=0.5;entryY=0;entryDx=0;entryDy=0;" edge="1" parent="1" source="YUDjFduZvXWAR3VUE5b8-2" target="YUDjFduZvXWAR3VUE5b8-2">
          <mxGeometry width="50" height="50" relative="1" as="geometry">
            <mxPoint x="360" y="640" as="sourcePoint" />
            <mxPoint x="410" y="590" as="targetPoint" />
          </mxGeometry>
        </mxCell>
        <mxCell id="YUDjFduZvXWAR3VUE5b8-6" value="" style="endArrow=none;html=1;rounded=0;entryX=0.5;entryY=0;entryDx=0;entryDy=0;exitX=1;exitY=0.5;exitDx=0;exitDy=0;" edge="1" parent="1" source="YUDjFduZvXWAR3VUE5b8-2" target="YUDjFduZvXWAR3VUE5b8-2">
          <mxGeometry width="50" height="50" relative="1" as="geometry">
            <mxPoint x="420" y="680" as="sourcePoint" />
            <mxPoint x="470" y="630" as="targetPoint" />
          </mxGeometry>
        </mxCell>
        <mxCell id="YUDjFduZvXWAR3VUE5b8-7" value="" style="endArrow=none;html=1;rounded=0;entryX=1;entryY=0.5;entryDx=0;entryDy=0;exitX=0.5;exitY=0;exitDx=0;exitDy=0;" edge="1" parent="1" source="YUDjFduZvXWAR3VUE5b8-3" target="YUDjFduZvXWAR3VUE5b8-2">
          <mxGeometry width="50" height="50" relative="1" as="geometry">
            <mxPoint x="420" y="680" as="sourcePoint" />
            <mxPoint x="470" y="630" as="targetPoint" />
          </mxGeometry>
        </mxCell>
        <mxCell id="YUDjFduZvXWAR3VUE5b8-8" value="" style="endArrow=classic;html=1;rounded=0;exitX=0.5;exitY=0;exitDx=0;exitDy=0;entryX=0.5;entryY=1;entryDx=0;entryDy=0;" edge="1" parent="1" source="YUDjFduZvXWAR3VUE5b8-3" target="YUDjFduZvXWAR3VUE5b8-3">
          <mxGeometry width="50" height="50" relative="1" as="geometry">
            <mxPoint x="420" y="680" as="sourcePoint" />
            <mxPoint x="470" y="630" as="targetPoint" />
          </mxGeometry>
        </mxCell>
        <mxCell id="YUDjFduZvXWAR3VUE5b8-9" value="" style="rounded=0;whiteSpace=wrap;html=1;fillColor=#f5f5f5;fontColor=#333333;strokeColor=#666666;" vertex="1" parent="1">
          <mxGeometry x="480" y="600" width="80" height="80" as="geometry" />
        </mxCell>
        <mxCell id="YUDjFduZvXWAR3VUE5b8-10" value="" style="rounded=0;whiteSpace=wrap;html=1;fillColor=#f5f5f5;fontColor=#333333;strokeColor=#666666;" vertex="1" parent="1">
          <mxGeometry x="560" y="600" width="80" height="80" as="geometry" />
        </mxCell>
        <mxCell id="YUDjFduZvXWAR3VUE5b8-11" value="" style="endArrow=none;html=1;rounded=0;exitX=0;exitY=0.5;exitDx=0;exitDy=0;entryX=1;entryY=0.5;entryDx=0;entryDy=0;" edge="1" parent="1" source="YUDjFduZvXWAR3VUE5b8-9" target="YUDjFduZvXWAR3VUE5b8-9">
          <mxGeometry width="50" height="50" relative="1" as="geometry">
            <mxPoint x="500" y="630" as="sourcePoint" />
            <mxPoint x="550" y="580" as="targetPoint" />
          </mxGeometry>
        </mxCell>
        <mxCell id="YUDjFduZvXWAR3VUE5b8-12" value="" style="endArrow=classic;html=1;rounded=0;exitX=0;exitY=0.5;exitDx=0;exitDy=0;entryX=0.5;entryY=0;entryDx=0;entryDy=0;endFill=1;" edge="1" parent="1" source="YUDjFduZvXWAR3VUE5b8-10" target="YUDjFduZvXWAR3VUE5b8-10">
          <mxGeometry width="50" height="50" relative="1" as="geometry">
            <mxPoint x="500" y="630" as="sourcePoint" />
            <mxPoint x="550" y="580" as="targetPoint" />
          </mxGeometry>
        </mxCell>
        <mxCell id="YUDjFduZvXWAR3VUE5b8-13" value="" style="endArrow=none;html=1;rounded=0;exitX=1;exitY=0.5;exitDx=0;exitDy=0;entryX=0.5;entryY=0;entryDx=0;entryDy=0;" edge="1" parent="1" source="YUDjFduZvXWAR3VUE5b8-10" target="YUDjFduZvXWAR3VUE5b8-10">
          <mxGeometry width="50" height="50" relative="1" as="geometry">
            <mxPoint x="500" y="630" as="sourcePoint" />
            <mxPoint x="550" y="580" as="targetPoint" />
          </mxGeometry>
        </mxCell>
        <mxCell id="YUDjFduZvXWAR3VUE5b8-14" value="" style="endArrow=none;html=1;rounded=0;entryX=1;entryY=0.5;entryDx=0;entryDy=0;exitX=0.5;exitY=1;exitDx=0;exitDy=0;" edge="1" parent="1" source="YUDjFduZvXWAR3VUE5b8-10" target="YUDjFduZvXWAR3VUE5b8-10">
          <mxGeometry width="50" height="50" relative="1" as="geometry">
            <mxPoint x="500" y="630" as="sourcePoint" />
            <mxPoint x="550" y="580" as="targetPoint" />
          </mxGeometry>
        </mxCell>
        <mxCell id="YUDjFduZvXWAR3VUE5b8-15" value="" style="endArrow=classic;html=1;rounded=0;exitX=0.5;exitY=1;exitDx=0;exitDy=0;entryX=0;entryY=0.5;entryDx=0;entryDy=0;" edge="1" parent="1" source="YUDjFduZvXWAR3VUE5b8-10" target="YUDjFduZvXWAR3VUE5b8-10">
          <mxGeometry width="50" height="50" relative="1" as="geometry">
            <mxPoint x="510" y="630" as="sourcePoint" />
            <mxPoint x="560" y="580" as="targetPoint" />
          </mxGeometry>
        </mxCell>
        <mxCell id="YUDjFduZvXWAR3VUE5b8-16" value="" style="rounded=0;whiteSpace=wrap;html=1;fillColor=#f5f5f5;fontColor=#333333;strokeColor=#666666;" vertex="1" parent="1">
          <mxGeometry x="680" y="600" width="80" height="80" as="geometry" />
        </mxCell>
        <mxCell id="YUDjFduZvXWAR3VUE5b8-17" value="" style="rounded=0;whiteSpace=wrap;html=1;fillColor=#f5f5f5;fontColor=#333333;strokeColor=#666666;" vertex="1" parent="1">
          <mxGeometry x="760" y="600" width="80" height="80" as="geometry" />
        </mxCell>
        <mxCell id="YUDjFduZvXWAR3VUE5b8-18" value="" style="rounded=0;whiteSpace=wrap;html=1;fillColor=#f5f5f5;fontColor=#333333;strokeColor=#666666;" vertex="1" parent="1">
          <mxGeometry x="760" y="520" width="80" height="80" as="geometry" />
        </mxCell>
        <mxCell id="YUDjFduZvXWAR3VUE5b8-19" value="" style="endArrow=none;html=1;rounded=0;entryX=1;entryY=0.5;entryDx=0;entryDy=0;" edge="1" parent="1" target="YUDjFduZvXWAR3VUE5b8-16">
          <mxGeometry width="50" height="50" relative="1" as="geometry">
            <mxPoint x="680" y="640" as="sourcePoint" />
            <mxPoint x="730" y="590" as="targetPoint" />
          </mxGeometry>
        </mxCell>
        <mxCell id="YUDjFduZvXWAR3VUE5b8-20" value="" style="endArrow=none;html=1;rounded=0;exitX=0;exitY=0.5;exitDx=0;exitDy=0;entryX=0.5;entryY=1;entryDx=0;entryDy=0;" edge="1" parent="1" source="YUDjFduZvXWAR3VUE5b8-17" target="YUDjFduZvXWAR3VUE5b8-17">
          <mxGeometry width="50" height="50" relative="1" as="geometry">
            <mxPoint x="670" y="610" as="sourcePoint" />
            <mxPoint x="720" y="560" as="targetPoint" />
          </mxGeometry>
        </mxCell>
        <mxCell id="YUDjFduZvXWAR3VUE5b8-21" value="" style="endArrow=none;html=1;rounded=0;entryX=1;entryY=0.5;entryDx=0;entryDy=0;" edge="1" parent="1" target="YUDjFduZvXWAR3VUE5b8-17">
          <mxGeometry width="50" height="50" relative="1" as="geometry">
            <mxPoint x="800" y="680" as="sourcePoint" />
            <mxPoint x="850" y="630" as="targetPoint" />
          </mxGeometry>
        </mxCell>
        <mxCell id="YUDjFduZvXWAR3VUE5b8-22" value="" style="endArrow=none;html=1;rounded=0;exitX=0.99;exitY=0.488;exitDx=0;exitDy=0;exitPerimeter=0;entryX=0.5;entryY=1;entryDx=0;entryDy=0;" edge="1" parent="1" source="YUDjFduZvXWAR3VUE5b8-17" target="YUDjFduZvXWAR3VUE5b8-18">
          <mxGeometry width="50" height="50" relative="1" as="geometry">
            <mxPoint x="670" y="610" as="sourcePoint" />
            <mxPoint x="720" y="560" as="targetPoint" />
          </mxGeometry>
        </mxCell>
        <mxCell id="YUDjFduZvXWAR3VUE5b8-23" value="" style="endArrow=classic;html=1;rounded=0;exitX=0.5;exitY=1;exitDx=0;exitDy=0;entryX=0.5;entryY=0;entryDx=0;entryDy=0;" edge="1" parent="1" source="YUDjFduZvXWAR3VUE5b8-18" target="YUDjFduZvXWAR3VUE5b8-18">
          <mxGeometry width="50" height="50" relative="1" as="geometry">
            <mxPoint x="670" y="610" as="sourcePoint" />
            <mxPoint x="720" y="560" as="targetPoint" />
          </mxGeometry>
        </mxCell>
        <mxCell id="YUDjFduZvXWAR3VUE5b8-24" value="" style="rounded=0;whiteSpace=wrap;html=1;fillColor=#f5f5f5;fontColor=#333333;strokeColor=#666666;" vertex="1" parent="1">
          <mxGeometry x="360" y="840" width="80" height="80" as="geometry" />
        </mxCell>
        <mxCell id="YUDjFduZvXWAR3VUE5b8-25" value="" style="rounded=0;whiteSpace=wrap;html=1;fillColor=#f5f5f5;fontColor=#333333;strokeColor=#666666;" vertex="1" parent="1">
          <mxGeometry x="360" y="920" width="80" height="80" as="geometry" />
        </mxCell>
        <mxCell id="YUDjFduZvXWAR3VUE5b8-26" value="" style="rounded=0;whiteSpace=wrap;html=1;fillColor=#f5f5f5;fontColor=#333333;strokeColor=#666666;" vertex="1" parent="1">
          <mxGeometry x="280" y="920" width="80" height="80" as="geometry" />
        </mxCell>
        <mxCell id="YUDjFduZvXWAR3VUE5b8-27" value="" style="rounded=0;whiteSpace=wrap;html=1;fillColor=#f5f5f5;fontColor=#333333;strokeColor=#666666;rotation=90;" vertex="1" parent="1">
          <mxGeometry x="520" y="840" width="80" height="80" as="geometry" />
        </mxCell>
        <mxCell id="YUDjFduZvXWAR3VUE5b8-28" value="" style="rounded=0;whiteSpace=wrap;html=1;fillColor=#f5f5f5;fontColor=#333333;strokeColor=#666666;" vertex="1" parent="1">
          <mxGeometry x="520" y="920" width="80" height="80" as="geometry" />
        </mxCell>
        <mxCell id="YUDjFduZvXWAR3VUE5b8-29" value="" style="rounded=0;whiteSpace=wrap;html=1;fillColor=#f5f5f5;fontColor=#333333;strokeColor=#666666;" vertex="1" parent="1">
          <mxGeometry x="680" y="920" width="80" height="80" as="geometry" />
        </mxCell>
        <mxCell id="YUDjFduZvXWAR3VUE5b8-30" value="" style="rounded=0;whiteSpace=wrap;html=1;fillColor=#f5f5f5;fontColor=#333333;strokeColor=#666666;" vertex="1" parent="1">
          <mxGeometry x="680" y="840" width="80" height="80" as="geometry" />
        </mxCell>
        <mxCell id="YUDjFduZvXWAR3VUE5b8-31" value="" style="rounded=0;whiteSpace=wrap;html=1;fillColor=#f5f5f5;fontColor=#333333;strokeColor=#666666;" vertex="1" parent="1">
          <mxGeometry x="760" y="920" width="80" height="80" as="geometry" />
        </mxCell>
        <mxCell id="YUDjFduZvXWAR3VUE5b8-32" value="" style="endArrow=none;html=1;rounded=0;exitX=0.5;exitY=1;exitDx=0;exitDy=0;" edge="1" parent="1" source="YUDjFduZvXWAR3VUE5b8-24">
          <mxGeometry width="50" height="50" relative="1" as="geometry">
            <mxPoint x="350" y="890" as="sourcePoint" />
            <mxPoint x="400" y="840" as="targetPoint" />
          </mxGeometry>
        </mxCell>
        <mxCell id="YUDjFduZvXWAR3VUE5b8-34" value="" style="endArrow=none;html=1;rounded=0;exitX=1;exitY=0.5;exitDx=0;exitDy=0;entryX=0.5;entryY=0;entryDx=0;entryDy=0;" edge="1" parent="1" source="YUDjFduZvXWAR3VUE5b8-25" target="YUDjFduZvXWAR3VUE5b8-25">
          <mxGeometry width="50" height="50" relative="1" as="geometry">
            <mxPoint x="410" y="930" as="sourcePoint" />
            <mxPoint x="410" y="850" as="targetPoint" />
          </mxGeometry>
        </mxCell>
        <mxCell id="YUDjFduZvXWAR3VUE5b8-35" value="" style="endArrow=none;html=1;rounded=0;exitX=1;exitY=0.5;exitDx=0;exitDy=0;entryX=0.5;entryY=1;entryDx=0;entryDy=0;" edge="1" parent="1" source="YUDjFduZvXWAR3VUE5b8-25" target="YUDjFduZvXWAR3VUE5b8-25">
          <mxGeometry width="50" height="50" relative="1" as="geometry">
            <mxPoint x="430" y="990" as="sourcePoint" />
            <mxPoint x="390" y="950" as="targetPoint" />
          </mxGeometry>
        </mxCell>
        <mxCell id="YUDjFduZvXWAR3VUE5b8-36" value="" style="endArrow=none;html=1;rounded=0;exitX=1;exitY=0.5;exitDx=0;exitDy=0;entryX=0.5;entryY=0;entryDx=0;entryDy=0;" edge="1" parent="1">
          <mxGeometry width="50" height="50" relative="1" as="geometry">
            <mxPoint x="400" y="1000" as="sourcePoint" />
            <mxPoint x="360" y="960" as="targetPoint" />
          </mxGeometry>
        </mxCell>
        <mxCell id="YUDjFduZvXWAR3VUE5b8-38" value="" style="edgeStyle=none;orthogonalLoop=1;jettySize=auto;html=1;rounded=0;entryX=0;entryY=0.5;entryDx=0;entryDy=0;exitX=1;exitY=0.5;exitDx=0;exitDy=0;" edge="1" parent="1" source="YUDjFduZvXWAR3VUE5b8-26" target="YUDjFduZvXWAR3VUE5b8-26">
          <mxGeometry width="80" relative="1" as="geometry">
            <mxPoint x="350" y="980" as="sourcePoint" />
            <mxPoint x="430" y="980" as="targetPoint" />
            <Array as="points" />
          </mxGeometry>
        </mxCell>
        <mxCell id="YUDjFduZvXWAR3VUE5b8-41" value="" style="endArrow=none;html=1;rounded=0;exitX=0.5;exitY=0;exitDx=0;exitDy=0;entryX=1;entryY=0.5;entryDx=0;entryDy=0;" edge="1" parent="1" source="YUDjFduZvXWAR3VUE5b8-28" target="YUDjFduZvXWAR3VUE5b8-28">
          <mxGeometry width="50" height="50" relative="1" as="geometry">
            <mxPoint x="650" y="930" as="sourcePoint" />
            <mxPoint x="610" y="969.88" as="targetPoint" />
          </mxGeometry>
        </mxCell>
        <mxCell id="YUDjFduZvXWAR3VUE5b8-42" value="" style="endArrow=none;html=1;rounded=0;exitX=0.5;exitY=1;exitDx=0;exitDy=0;entryX=1;entryY=0.5;entryDx=0;entryDy=0;" edge="1" parent="1" source="YUDjFduZvXWAR3VUE5b8-28" target="YUDjFduZvXWAR3VUE5b8-28">
          <mxGeometry width="50" height="50" relative="1" as="geometry">
            <mxPoint x="610" y="950" as="sourcePoint" />
            <mxPoint x="650" y="990" as="targetPoint" />
          </mxGeometry>
        </mxCell>
        <mxCell id="YUDjFduZvXWAR3VUE5b8-43" value="" style="edgeStyle=none;orthogonalLoop=1;jettySize=auto;html=1;rounded=0;entryX=0.5;entryY=0;entryDx=0;entryDy=0;exitX=0;exitY=0.5;exitDx=0;exitDy=0;" edge="1" parent="1" source="YUDjFduZvXWAR3VUE5b8-28" target="YUDjFduZvXWAR3VUE5b8-28">
          <mxGeometry width="80" relative="1" as="geometry">
            <mxPoint x="650" y="1020" as="sourcePoint" />
            <mxPoint x="730" y="1020" as="targetPoint" />
            <Array as="points" />
          </mxGeometry>
        </mxCell>
        <mxCell id="YUDjFduZvXWAR3VUE5b8-44" value="" style="endArrow=none;html=1;rounded=0;exitX=0.5;exitY=0;exitDx=0;exitDy=0;entryX=0.5;entryY=0;entryDx=0;entryDy=0;" edge="1" parent="1" target="YUDjFduZvXWAR3VUE5b8-29">
          <mxGeometry width="50" height="50" relative="1" as="geometry">
            <mxPoint x="720" y="840" as="sourcePoint" />
            <mxPoint x="760" y="880" as="targetPoint" />
          </mxGeometry>
        </mxCell>
        <mxCell id="YUDjFduZvXWAR3VUE5b8-45" value="" style="endArrow=none;html=1;rounded=0;exitX=0.5;exitY=0;exitDx=0;exitDy=0;entryX=0;entryY=0.5;entryDx=0;entryDy=0;" edge="1" parent="1" target="YUDjFduZvXWAR3VUE5b8-29">
          <mxGeometry width="50" height="50" relative="1" as="geometry">
            <mxPoint x="719.88" y="920" as="sourcePoint" />
            <mxPoint x="719.88" y="1000" as="targetPoint" />
          </mxGeometry>
        </mxCell>
        <mxCell id="YUDjFduZvXWAR3VUE5b8-46" value="" style="endArrow=none;html=1;rounded=0;entryX=0.5;entryY=1;entryDx=0;entryDy=0;" edge="1" parent="1" target="YUDjFduZvXWAR3VUE5b8-29">
          <mxGeometry width="50" height="50" relative="1" as="geometry">
            <mxPoint x="680" y="960" as="sourcePoint" />
            <mxPoint x="690" y="970" as="targetPoint" />
          </mxGeometry>
        </mxCell>
        <mxCell id="YUDjFduZvXWAR3VUE5b8-47" value="" style="endArrow=none;html=1;rounded=0;entryX=1;entryY=0.5;entryDx=0;entryDy=0;exitX=0.5;exitY=1;exitDx=0;exitDy=0;" edge="1" parent="1" source="YUDjFduZvXWAR3VUE5b8-29" target="YUDjFduZvXWAR3VUE5b8-29">
          <mxGeometry width="50" height="50" relative="1" as="geometry">
            <mxPoint x="700" y="950" as="sourcePoint" />
            <mxPoint x="740" y="990" as="targetPoint" />
          </mxGeometry>
        </mxCell>
        <mxCell id="YUDjFduZvXWAR3VUE5b8-48" value="" style="edgeStyle=none;orthogonalLoop=1;jettySize=auto;html=1;rounded=0;" edge="1" parent="1">
          <mxGeometry width="80" relative="1" as="geometry">
            <mxPoint x="760" y="959.88" as="sourcePoint" />
            <mxPoint x="840" y="959.88" as="targetPoint" />
            <Array as="points" />
          </mxGeometry>
        </mxCell>
        <mxCell id="YUDjFduZvXWAR3VUE5b8-49" value="" style="rounded=0;whiteSpace=wrap;html=1;fillColor=#f5f5f5;fontColor=#333333;strokeColor=#666666;" vertex="1" parent="1">
          <mxGeometry x="360" y="1160" width="80" height="80" as="geometry" />
        </mxCell>
        <mxCell id="YUDjFduZvXWAR3VUE5b8-50" value="" style="rounded=0;whiteSpace=wrap;html=1;fillColor=#f5f5f5;fontColor=#333333;strokeColor=#666666;" vertex="1" parent="1">
          <mxGeometry x="280" y="1160" width="80" height="80" as="geometry" />
        </mxCell>
        <mxCell id="YUDjFduZvXWAR3VUE5b8-51" value="" style="rounded=0;whiteSpace=wrap;html=1;fillColor=#f5f5f5;fontColor=#333333;strokeColor=#666666;" vertex="1" parent="1">
          <mxGeometry x="280" y="1240" width="80" height="80" as="geometry" />
        </mxCell>
        <mxCell id="YUDjFduZvXWAR3VUE5b8-52" value="" style="rounded=0;whiteSpace=wrap;html=1;fillColor=#f5f5f5;fontColor=#333333;strokeColor=#666666;" vertex="1" parent="1">
          <mxGeometry x="480" y="1160" width="80" height="80" as="geometry" />
        </mxCell>
        <mxCell id="YUDjFduZvXWAR3VUE5b8-53" value="" style="rounded=0;whiteSpace=wrap;html=1;fillColor=#f5f5f5;fontColor=#333333;strokeColor=#666666;" vertex="1" parent="1">
          <mxGeometry x="560" y="1160" width="80" height="80" as="geometry" />
        </mxCell>
        <mxCell id="YUDjFduZvXWAR3VUE5b8-54" value="" style="rounded=0;whiteSpace=wrap;html=1;fillColor=#f5f5f5;fontColor=#333333;strokeColor=#666666;" vertex="1" parent="1">
          <mxGeometry x="680" y="1160" width="80" height="80" as="geometry" />
        </mxCell>
        <mxCell id="YUDjFduZvXWAR3VUE5b8-55" value="" style="rounded=0;whiteSpace=wrap;html=1;fillColor=#f5f5f5;fontColor=#333333;strokeColor=#666666;" vertex="1" parent="1">
          <mxGeometry x="760" y="1160" width="80" height="80" as="geometry" />
        </mxCell>
        <mxCell id="YUDjFduZvXWAR3VUE5b8-56" value="" style="rounded=0;whiteSpace=wrap;html=1;fillColor=#f5f5f5;fontColor=#333333;strokeColor=#666666;" vertex="1" parent="1">
          <mxGeometry x="680" y="1080" width="80" height="80" as="geometry" />
        </mxCell>
        <mxCell id="YUDjFduZvXWAR3VUE5b8-57" value="" style="endArrow=none;html=1;rounded=0;entryX=1;entryY=0.5;entryDx=0;entryDy=0;exitX=0;exitY=0.5;exitDx=0;exitDy=0;" edge="1" parent="1" source="YUDjFduZvXWAR3VUE5b8-49" target="YUDjFduZvXWAR3VUE5b8-49">
          <mxGeometry width="50" height="50" relative="1" as="geometry">
            <mxPoint x="350" y="1130" as="sourcePoint" />
            <mxPoint x="400" y="1080" as="targetPoint" />
          </mxGeometry>
        </mxCell>
        <mxCell id="YUDjFduZvXWAR3VUE5b8-58" value="" style="endArrow=none;html=1;rounded=0;entryX=1;entryY=0.5;entryDx=0;entryDy=0;exitX=0.5;exitY=0;exitDx=0;exitDy=0;" edge="1" parent="1" source="YUDjFduZvXWAR3VUE5b8-50">
          <mxGeometry width="50" height="50" relative="1" as="geometry">
            <mxPoint x="280" y="1199.9" as="sourcePoint" />
            <mxPoint x="360" y="1199.9" as="targetPoint" />
          </mxGeometry>
        </mxCell>
        <mxCell id="YUDjFduZvXWAR3VUE5b8-59" value="" style="endArrow=none;html=1;rounded=0;entryX=0;entryY=0.5;entryDx=0;entryDy=0;exitX=0.5;exitY=0;exitDx=0;exitDy=0;" edge="1" parent="1" source="YUDjFduZvXWAR3VUE5b8-50" target="YUDjFduZvXWAR3VUE5b8-50">
          <mxGeometry width="50" height="50" relative="1" as="geometry">
            <mxPoint x="300" y="1180.05" as="sourcePoint" />
            <mxPoint x="340" y="1219.95" as="targetPoint" />
          </mxGeometry>
        </mxCell>
        <mxCell id="YUDjFduZvXWAR3VUE5b8-60" value="" style="endArrow=none;html=1;rounded=0;entryX=0.5;entryY=1;entryDx=0;entryDy=0;" edge="1" parent="1" target="YUDjFduZvXWAR3VUE5b8-50">
          <mxGeometry width="50" height="50" relative="1" as="geometry">
            <mxPoint x="280" y="1200" as="sourcePoint" />
            <mxPoint x="290" y="1230" as="targetPoint" />
          </mxGeometry>
        </mxCell>
        <mxCell id="YUDjFduZvXWAR3VUE5b8-61" value="" style="edgeStyle=none;orthogonalLoop=1;jettySize=auto;html=1;rounded=0;exitX=0.5;exitY=0;exitDx=0;exitDy=0;entryX=0.5;entryY=1;entryDx=0;entryDy=0;" edge="1" parent="1" source="YUDjFduZvXWAR3VUE5b8-51" target="YUDjFduZvXWAR3VUE5b8-51">
          <mxGeometry width="80" relative="1" as="geometry">
            <mxPoint x="400" y="1360" as="sourcePoint" />
            <mxPoint x="480" y="1360" as="targetPoint" />
            <Array as="points" />
          </mxGeometry>
        </mxCell>
        <mxCell id="YUDjFduZvXWAR3VUE5b8-62" value="" style="endArrow=none;html=1;rounded=0;entryX=1;entryY=0.5;entryDx=0;entryDy=0;exitX=0;exitY=0.5;exitDx=0;exitDy=0;" edge="1" parent="1">
          <mxGeometry width="50" height="50" relative="1" as="geometry">
            <mxPoint x="560" y="1199.9" as="sourcePoint" />
            <mxPoint x="640" y="1199.9" as="targetPoint" />
          </mxGeometry>
        </mxCell>
        <mxCell id="YUDjFduZvXWAR3VUE5b8-63" value="" style="endArrow=classic;html=1;rounded=0;exitX=0;exitY=0.5;exitDx=0;exitDy=0;endFill=1;" edge="1" parent="1" source="YUDjFduZvXWAR3VUE5b8-53">
          <mxGeometry width="50" height="50" relative="1" as="geometry">
            <mxPoint x="560" y="1250" as="sourcePoint" />
            <mxPoint x="520" y="1160" as="targetPoint" />
          </mxGeometry>
        </mxCell>
        <mxCell id="YUDjFduZvXWAR3VUE5b8-64" value="" style="endArrow=none;html=1;rounded=0;entryX=0;entryY=0.5;entryDx=0;entryDy=0;exitX=0.5;exitY=0;exitDx=0;exitDy=0;" edge="1" parent="1">
          <mxGeometry width="50" height="50" relative="1" as="geometry">
            <mxPoint x="520" y="1160" as="sourcePoint" />
            <mxPoint x="480" y="1200" as="targetPoint" />
          </mxGeometry>
        </mxCell>
        <mxCell id="YUDjFduZvXWAR3VUE5b8-65" value="" style="endArrow=none;html=1;rounded=0;entryX=0.5;entryY=1;entryDx=0;entryDy=0;" edge="1" parent="1">
          <mxGeometry width="50" height="50" relative="1" as="geometry">
            <mxPoint x="480" y="1200" as="sourcePoint" />
            <mxPoint x="520" y="1240" as="targetPoint" />
          </mxGeometry>
        </mxCell>
        <mxCell id="YUDjFduZvXWAR3VUE5b8-67" value="" style="edgeStyle=none;orthogonalLoop=1;jettySize=auto;html=1;rounded=0;entryX=1;entryY=0.5;entryDx=0;entryDy=0;exitX=0.5;exitY=1;exitDx=0;exitDy=0;" edge="1" parent="1" source="YUDjFduZvXWAR3VUE5b8-52" target="YUDjFduZvXWAR3VUE5b8-52">
          <mxGeometry width="80" relative="1" as="geometry">
            <mxPoint x="490" y="1279.9" as="sourcePoint" />
            <mxPoint x="570" y="1279.9" as="targetPoint" />
            <Array as="points" />
          </mxGeometry>
        </mxCell>
        <mxCell id="YUDjFduZvXWAR3VUE5b8-68" value="" style="endArrow=none;html=1;rounded=0;entryX=1;entryY=0.5;entryDx=0;entryDy=0;exitX=0;exitY=0.5;exitDx=0;exitDy=0;" edge="1" parent="1">
          <mxGeometry width="50" height="50" relative="1" as="geometry">
            <mxPoint x="760" y="1199.88" as="sourcePoint" />
            <mxPoint x="840" y="1199.88" as="targetPoint" />
          </mxGeometry>
        </mxCell>
        <mxCell id="YUDjFduZvXWAR3VUE5b8-69" value="" style="endArrow=none;html=1;rounded=0;entryX=1;entryY=0.5;entryDx=0;entryDy=0;exitX=0.5;exitY=1;exitDx=0;exitDy=0;" edge="1" parent="1" source="YUDjFduZvXWAR3VUE5b8-54">
          <mxGeometry width="50" height="50" relative="1" as="geometry">
            <mxPoint x="680" y="1199.88" as="sourcePoint" />
            <mxPoint x="760" y="1199.88" as="targetPoint" />
          </mxGeometry>
        </mxCell>
        <mxCell id="YUDjFduZvXWAR3VUE5b8-70" value="" style="endArrow=none;html=1;rounded=0;entryX=0;entryY=0.5;entryDx=0;entryDy=0;" edge="1" parent="1" target="YUDjFduZvXWAR3VUE5b8-54">
          <mxGeometry width="50" height="50" relative="1" as="geometry">
            <mxPoint x="720" y="1240" as="sourcePoint" />
            <mxPoint x="770" y="1209.88" as="targetPoint" />
          </mxGeometry>
        </mxCell>
        <mxCell id="YUDjFduZvXWAR3VUE5b8-71" value="" style="endArrow=none;html=1;rounded=0;entryX=0;entryY=0.5;entryDx=0;entryDy=0;exitX=0.5;exitY=0;exitDx=0;exitDy=0;" edge="1" parent="1" source="YUDjFduZvXWAR3VUE5b8-54" target="YUDjFduZvXWAR3VUE5b8-54">
          <mxGeometry width="50" height="50" relative="1" as="geometry">
            <mxPoint x="730" y="1250" as="sourcePoint" />
            <mxPoint x="690" y="1210" as="targetPoint" />
          </mxGeometry>
        </mxCell>
        <mxCell id="YUDjFduZvXWAR3VUE5b8-72" value="" style="edgeStyle=none;orthogonalLoop=1;jettySize=auto;html=1;rounded=0;entryX=0.5;entryY=0;entryDx=0;entryDy=0;exitX=0.5;exitY=1;exitDx=0;exitDy=0;" edge="1" parent="1" target="YUDjFduZvXWAR3VUE5b8-56">
          <mxGeometry width="80" relative="1" as="geometry">
            <mxPoint x="720" y="1160" as="sourcePoint" />
            <mxPoint x="760" y="1120" as="targetPoint" />
            <Array as="points" />
          </mxGeometry>
        </mxCell>
        <mxCell id="YUDjFduZvXWAR3VUE5b8-73" value="" style="rounded=0;whiteSpace=wrap;html=1;fillColor=#f5f5f5;fontColor=#333333;strokeColor=#666666;" vertex="1" parent="1">
          <mxGeometry x="280" y="1480" width="80" height="80" as="geometry" />
        </mxCell>
        <mxCell id="YUDjFduZvXWAR3VUE5b8-74" value="" style="rounded=0;whiteSpace=wrap;html=1;fillColor=#f5f5f5;fontColor=#333333;strokeColor=#666666;" vertex="1" parent="1">
          <mxGeometry x="280" y="1400" width="80" height="80" as="geometry" />
        </mxCell>
        <mxCell id="YUDjFduZvXWAR3VUE5b8-75" value="" style="rounded=0;whiteSpace=wrap;html=1;fillColor=#f5f5f5;fontColor=#333333;strokeColor=#666666;" vertex="1" parent="1">
          <mxGeometry x="360" y="1400" width="80" height="80" as="geometry" />
        </mxCell>
        <mxCell id="YUDjFduZvXWAR3VUE5b8-76" value="" style="rounded=0;whiteSpace=wrap;html=1;fillColor=#f5f5f5;fontColor=#333333;strokeColor=#666666;" vertex="1" parent="1">
          <mxGeometry x="520" y="1480" width="80" height="80" as="geometry" />
        </mxCell>
        <mxCell id="YUDjFduZvXWAR3VUE5b8-77" value="" style="rounded=0;whiteSpace=wrap;html=1;fillColor=#f5f5f5;fontColor=#333333;strokeColor=#666666;" vertex="1" parent="1">
          <mxGeometry x="520" y="1400" width="80" height="80" as="geometry" />
        </mxCell>
        <mxCell id="YUDjFduZvXWAR3VUE5b8-78" value="" style="rounded=0;whiteSpace=wrap;html=1;fillColor=#f5f5f5;fontColor=#333333;strokeColor=#666666;" vertex="1" parent="1">
          <mxGeometry x="760" y="1400" width="80" height="80" as="geometry" />
        </mxCell>
        <mxCell id="YUDjFduZvXWAR3VUE5b8-79" value="" style="endArrow=none;html=1;rounded=0;exitX=0.5;exitY=1;exitDx=0;exitDy=0;" edge="1" parent="1">
          <mxGeometry width="50" height="50" relative="1" as="geometry">
            <mxPoint x="559.86" y="920" as="sourcePoint" />
            <mxPoint x="559.86" y="840" as="targetPoint" />
          </mxGeometry>
        </mxCell>
        <mxCell id="YUDjFduZvXWAR3VUE5b8-80" value="" style="endArrow=none;html=1;rounded=0;exitX=0.5;exitY=0;exitDx=0;exitDy=0;entryX=1;entryY=0.5;entryDx=0;entryDy=0;" edge="1" parent="1">
          <mxGeometry width="50" height="50" relative="1" as="geometry">
            <mxPoint x="520" y="960" as="sourcePoint" />
            <mxPoint x="560" y="1000" as="targetPoint" />
          </mxGeometry>
        </mxCell>
        <mxCell id="YUDjFduZvXWAR3VUE5b8-81" value="" style="rounded=0;whiteSpace=wrap;html=1;fillColor=#f5f5f5;fontColor=#333333;strokeColor=#666666;" vertex="1" parent="1">
          <mxGeometry x="760" y="1480" width="80" height="80" as="geometry" />
        </mxCell>
        <mxCell id="YUDjFduZvXWAR3VUE5b8-82" value="" style="rounded=0;whiteSpace=wrap;html=1;fillColor=#f5f5f5;fontColor=#333333;strokeColor=#666666;" vertex="1" parent="1">
          <mxGeometry x="680" y="1400" width="80" height="80" as="geometry" />
        </mxCell>
        <mxCell id="YUDjFduZvXWAR3VUE5b8-83" value="" style="endArrow=none;html=1;rounded=0;entryX=0.5;entryY=0;entryDx=0;entryDy=0;" edge="1" parent="1" target="YUDjFduZvXWAR3VUE5b8-73">
          <mxGeometry width="50" height="50" relative="1" as="geometry">
            <mxPoint x="320" y="1560" as="sourcePoint" />
            <mxPoint x="370" y="1510" as="targetPoint" />
          </mxGeometry>
        </mxCell>
        <mxCell id="YUDjFduZvXWAR3VUE5b8-84" value="" style="endArrow=none;html=1;rounded=0;exitX=0.5;exitY=0;exitDx=0;exitDy=0;entryX=0;entryY=0.5;entryDx=0;entryDy=0;" edge="1" parent="1" source="YUDjFduZvXWAR3VUE5b8-73" target="YUDjFduZvXWAR3VUE5b8-74">
          <mxGeometry width="50" height="50" relative="1" as="geometry">
            <mxPoint x="420" y="1420" as="sourcePoint" />
            <mxPoint x="470" y="1370" as="targetPoint" />
          </mxGeometry>
        </mxCell>
        <mxCell id="YUDjFduZvXWAR3VUE5b8-85" value="" style="endArrow=none;html=1;rounded=0;exitX=0;exitY=0.5;exitDx=0;exitDy=0;entryX=0.5;entryY=0;entryDx=0;entryDy=0;" edge="1" parent="1" source="YUDjFduZvXWAR3VUE5b8-74" target="YUDjFduZvXWAR3VUE5b8-74">
          <mxGeometry width="50" height="50" relative="1" as="geometry">
            <mxPoint x="420" y="1420" as="sourcePoint" />
            <mxPoint x="470" y="1370" as="targetPoint" />
          </mxGeometry>
        </mxCell>
        <mxCell id="YUDjFduZvXWAR3VUE5b8-86" value="" style="endArrow=none;html=1;rounded=0;exitX=1;exitY=0.5;exitDx=0;exitDy=0;entryX=0.5;entryY=0;entryDx=0;entryDy=0;" edge="1" parent="1" source="YUDjFduZvXWAR3VUE5b8-74" target="YUDjFduZvXWAR3VUE5b8-74">
          <mxGeometry width="50" height="50" relative="1" as="geometry">
            <mxPoint x="290" y="1450" as="sourcePoint" />
            <mxPoint x="330" y="1410" as="targetPoint" />
          </mxGeometry>
        </mxCell>
        <mxCell id="YUDjFduZvXWAR3VUE5b8-87" value="" style="endArrow=classic;html=1;rounded=0;exitX=0;exitY=0.5;exitDx=0;exitDy=0;entryX=1;entryY=0.5;entryDx=0;entryDy=0;" edge="1" parent="1" source="YUDjFduZvXWAR3VUE5b8-75" target="YUDjFduZvXWAR3VUE5b8-75">
          <mxGeometry width="50" height="50" relative="1" as="geometry">
            <mxPoint x="420" y="1420" as="sourcePoint" />
            <mxPoint x="470" y="1370" as="targetPoint" />
          </mxGeometry>
        </mxCell>
        <mxCell id="YUDjFduZvXWAR3VUE5b8-88" value="" style="endArrow=none;html=1;rounded=0;exitX=0.5;exitY=1;exitDx=0;exitDy=0;entryX=0.5;entryY=1;entryDx=0;entryDy=0;" edge="1" parent="1" source="YUDjFduZvXWAR3VUE5b8-76" target="YUDjFduZvXWAR3VUE5b8-77">
          <mxGeometry width="50" height="50" relative="1" as="geometry">
            <mxPoint x="490" y="1440" as="sourcePoint" />
            <mxPoint x="540" y="1390" as="targetPoint" />
          </mxGeometry>
        </mxCell>
        <mxCell id="YUDjFduZvXWAR3VUE5b8-90" value="" style="edgeStyle=none;orthogonalLoop=1;jettySize=auto;html=1;rounded=0;exitX=0.5;exitY=1;exitDx=0;exitDy=0;" edge="1" parent="1" source="YUDjFduZvXWAR3VUE5b8-77">
          <mxGeometry width="80" relative="1" as="geometry">
            <mxPoint x="520" y="1440" as="sourcePoint" />
            <mxPoint x="600" y="1440" as="targetPoint" />
            <Array as="points" />
          </mxGeometry>
        </mxCell>
        <mxCell id="YUDjFduZvXWAR3VUE5b8-91" value="" style="endArrow=none;html=1;rounded=0;exitX=0.5;exitY=1;exitDx=0;exitDy=0;entryX=0.5;entryY=0;entryDx=0;entryDy=0;" edge="1" parent="1" target="YUDjFduZvXWAR3VUE5b8-77">
          <mxGeometry width="50" height="50" relative="1" as="geometry">
            <mxPoint x="599.77" y="1440" as="sourcePoint" />
            <mxPoint x="599.77" y="1360" as="targetPoint" />
          </mxGeometry>
        </mxCell>
        <mxCell id="YUDjFduZvXWAR3VUE5b8-92" value="" style="endArrow=none;html=1;rounded=0;exitX=0;exitY=0.5;exitDx=0;exitDy=0;entryX=0.5;entryY=0;entryDx=0;entryDy=0;" edge="1" parent="1" source="YUDjFduZvXWAR3VUE5b8-77" target="YUDjFduZvXWAR3VUE5b8-77">
          <mxGeometry width="50" height="50" relative="1" as="geometry">
            <mxPoint x="589.77" y="1450" as="sourcePoint" />
            <mxPoint x="550" y="1410" as="targetPoint" />
          </mxGeometry>
        </mxCell>
        <mxCell id="YUDjFduZvXWAR3VUE5b8-93" value="" style="edgeStyle=none;orthogonalLoop=1;jettySize=auto;html=1;rounded=0;entryX=0.5;entryY=1;entryDx=0;entryDy=0;" edge="1" parent="1" target="YUDjFduZvXWAR3VUE5b8-77">
          <mxGeometry width="80" relative="1" as="geometry">
            <mxPoint x="520" y="1439.89" as="sourcePoint" />
            <mxPoint x="600" y="1439.89" as="targetPoint" />
            <Array as="points" />
          </mxGeometry>
        </mxCell>
        <mxCell id="YUDjFduZvXWAR3VUE5b8-95" value="" style="endArrow=none;html=1;rounded=0;exitX=0.5;exitY=1;exitDx=0;exitDy=0;entryX=0.5;entryY=1;entryDx=0;entryDy=0;" edge="1" parent="1">
          <mxGeometry width="50" height="50" relative="1" as="geometry">
            <mxPoint x="799.89" y="1560" as="sourcePoint" />
            <mxPoint x="799.89" y="1480" as="targetPoint" />
          </mxGeometry>
        </mxCell>
        <mxCell id="YUDjFduZvXWAR3VUE5b8-96" value="" style="endArrow=none;html=1;rounded=0;exitX=1;exitY=0.5;exitDx=0;exitDy=0;entryX=0.5;entryY=0;entryDx=0;entryDy=0;" edge="1" parent="1" source="YUDjFduZvXWAR3VUE5b8-78">
          <mxGeometry width="50" height="50" relative="1" as="geometry">
            <mxPoint x="840" y="1520" as="sourcePoint" />
            <mxPoint x="800.23" y="1480" as="targetPoint" />
          </mxGeometry>
        </mxCell>
        <mxCell id="YUDjFduZvXWAR3VUE5b8-97" value="" style="endArrow=none;html=1;rounded=0;exitX=1;exitY=0.5;exitDx=0;exitDy=0;entryX=0.5;entryY=0;entryDx=0;entryDy=0;" edge="1" parent="1" source="YUDjFduZvXWAR3VUE5b8-78" target="YUDjFduZvXWAR3VUE5b8-78">
          <mxGeometry width="50" height="50" relative="1" as="geometry">
            <mxPoint x="826.77" y="1430" as="sourcePoint" />
            <mxPoint x="787" y="1470" as="targetPoint" />
          </mxGeometry>
        </mxCell>
        <mxCell id="YUDjFduZvXWAR3VUE5b8-98" value="" style="endArrow=none;html=1;rounded=0;exitX=0;exitY=0.5;exitDx=0;exitDy=0;entryX=0.5;entryY=0;entryDx=0;entryDy=0;" edge="1" parent="1" source="YUDjFduZvXWAR3VUE5b8-78" target="YUDjFduZvXWAR3VUE5b8-78">
          <mxGeometry width="50" height="50" relative="1" as="geometry">
            <mxPoint x="820" y="1460" as="sourcePoint" />
            <mxPoint x="780" y="1420" as="targetPoint" />
          </mxGeometry>
        </mxCell>
        <mxCell id="YUDjFduZvXWAR3VUE5b8-99" value="" style="edgeStyle=none;orthogonalLoop=1;jettySize=auto;html=1;rounded=0;entryX=0;entryY=0.5;entryDx=0;entryDy=0;exitX=1;exitY=0.5;exitDx=0;exitDy=0;" edge="1" parent="1" source="YUDjFduZvXWAR3VUE5b8-82" target="YUDjFduZvXWAR3VUE5b8-82">
          <mxGeometry width="80" relative="1" as="geometry">
            <mxPoint x="660" y="1500" as="sourcePoint" />
            <mxPoint x="740" y="1500" as="targetPoint" />
            <Array as="points" />
          </mxGeometry>
        </mxCell>
        <mxCell id="YUDjFduZvXWAR3VUE5b8-100" value="" style="rounded=0;whiteSpace=wrap;html=1;fillColor=#f5f5f5;fontColor=#333333;strokeColor=#666666;" vertex="1" parent="1">
          <mxGeometry x="280" y="1680" width="160" height="160" as="geometry" />
        </mxCell>
        <mxCell id="YUDjFduZvXWAR3VUE5b8-101" value="" style="ellipse;whiteSpace=wrap;html=1;aspect=fixed;fillColor=#f8cecc;strokeColor=#b85450;" vertex="1" parent="1">
          <mxGeometry x="350" y="1750" width="20" height="20" as="geometry" />
        </mxCell>
        <mxCell id="YUDjFduZvXWAR3VUE5b8-103" value="" style="rounded=0;whiteSpace=wrap;html=1;fillColor=#f5f5f5;fontColor=#333333;strokeColor=#666666;" vertex="1" parent="1">
          <mxGeometry x="680" y="1680" width="160" height="160" as="geometry" />
        </mxCell>
        <mxCell id="YUDjFduZvXWAR3VUE5b8-104" value="" style="ellipse;whiteSpace=wrap;html=1;aspect=fixed;fillColor=#f8cecc;strokeColor=#b85450;" vertex="1" parent="1">
          <mxGeometry x="750" y="1750" width="20" height="20" as="geometry" />
        </mxCell>
        <mxCell id="YUDjFduZvXWAR3VUE5b8-105" value="" style="ellipse;whiteSpace=wrap;html=1;aspect=fixed;fillColor=#f8cecc;strokeColor=#b85450;" vertex="1" parent="1">
          <mxGeometry x="670" y="1750" width="20" height="20" as="geometry" />
        </mxCell>
        <mxCell id="YUDjFduZvXWAR3VUE5b8-106" value="" style="ellipse;whiteSpace=wrap;html=1;aspect=fixed;fillColor=#f8cecc;strokeColor=#b85450;" vertex="1" parent="1">
          <mxGeometry x="750" y="1670" width="20" height="20" as="geometry" />
        </mxCell>
        <mxCell id="YUDjFduZvXWAR3VUE5b8-107" value="" style="ellipse;whiteSpace=wrap;html=1;aspect=fixed;fillColor=#f8cecc;strokeColor=#b85450;" vertex="1" parent="1">
          <mxGeometry x="830" y="1750" width="20" height="20" as="geometry" />
        </mxCell>
        <mxCell id="YUDjFduZvXWAR3VUE5b8-108" value="" style="ellipse;whiteSpace=wrap;html=1;aspect=fixed;fillColor=#f8cecc;strokeColor=#b85450;" vertex="1" parent="1">
          <mxGeometry x="750" y="1830" width="20" height="20" as="geometry" />
        </mxCell>
        <mxCell id="YUDjFduZvXWAR3VUE5b8-109" value="" style="endArrow=classic;startArrow=classic;html=1;rounded=0;exitX=0.5;exitY=0;exitDx=0;exitDy=0;entryX=0.5;entryY=1;entryDx=0;entryDy=0;" edge="1" parent="1" source="YUDjFduZvXWAR3VUE5b8-104" target="YUDjFduZvXWAR3VUE5b8-106">
          <mxGeometry width="50" height="50" relative="1" as="geometry">
            <mxPoint x="740" y="1760" as="sourcePoint" />
            <mxPoint x="790" y="1710" as="targetPoint" />
          </mxGeometry>
        </mxCell>
        <mxCell id="YUDjFduZvXWAR3VUE5b8-115" value="d" style="edgeLabel;html=1;align=center;verticalAlign=middle;resizable=0;points=[];" vertex="1" connectable="0" parent="YUDjFduZvXWAR3VUE5b8-109">
          <mxGeometry x="0.0407" relative="1" as="geometry">
            <mxPoint x="1" as="offset" />
          </mxGeometry>
        </mxCell>
        <mxCell id="YUDjFduZvXWAR3VUE5b8-110" value="" style="shape=flexArrow;endArrow=classic;html=1;rounded=0;fillColor=#e1d5e7;strokeColor=#9673a6;" edge="1" parent="1">
          <mxGeometry width="50" height="50" relative="1" as="geometry">
            <mxPoint x="480" y="1760" as="sourcePoint" />
            <mxPoint x="640" y="1760" as="targetPoint" />
          </mxGeometry>
        </mxCell>
        <mxCell id="YUDjFduZvXWAR3VUE5b8-111" value="" style="endArrow=classic;startArrow=classic;html=1;rounded=0;entryX=0;entryY=0.5;entryDx=0;entryDy=0;exitX=1;exitY=0.5;exitDx=0;exitDy=0;" edge="1" parent="1" source="YUDjFduZvXWAR3VUE5b8-105" target="YUDjFduZvXWAR3VUE5b8-104">
          <mxGeometry width="50" height="50" relative="1" as="geometry">
            <mxPoint x="670" y="1740" as="sourcePoint" />
            <mxPoint x="720" y="1690" as="targetPoint" />
          </mxGeometry>
        </mxCell>
        <mxCell id="YUDjFduZvXWAR3VUE5b8-114" value="d" style="edgeLabel;html=1;align=center;verticalAlign=middle;resizable=0;points=[];" vertex="1" connectable="0" parent="YUDjFduZvXWAR3VUE5b8-111">
          <mxGeometry x="0.0352" y="-1" relative="1" as="geometry">
            <mxPoint as="offset" />
          </mxGeometry>
        </mxCell>
        <mxCell id="YUDjFduZvXWAR3VUE5b8-112" value="" style="endArrow=classic;startArrow=classic;html=1;rounded=0;exitX=0.5;exitY=0;exitDx=0;exitDy=0;entryX=0.5;entryY=1;entryDx=0;entryDy=0;" edge="1" parent="1">
          <mxGeometry width="50" height="50" relative="1" as="geometry">
            <mxPoint x="760" y="1830" as="sourcePoint" />
            <mxPoint x="760" y="1770" as="targetPoint" />
          </mxGeometry>
        </mxCell>
        <mxCell id="YUDjFduZvXWAR3VUE5b8-117" value="d" style="edgeLabel;html=1;align=center;verticalAlign=middle;resizable=0;points=[];" vertex="1" connectable="0" parent="YUDjFduZvXWAR3VUE5b8-112">
          <mxGeometry x="-0.0241" y="-1" relative="1" as="geometry">
            <mxPoint as="offset" />
          </mxGeometry>
        </mxCell>
        <mxCell id="YUDjFduZvXWAR3VUE5b8-113" value="" style="endArrow=classic;startArrow=classic;html=1;rounded=0;entryX=0;entryY=0.5;entryDx=0;entryDy=0;exitX=1;exitY=0.5;exitDx=0;exitDy=0;" edge="1" parent="1">
          <mxGeometry width="50" height="50" relative="1" as="geometry">
            <mxPoint x="770" y="1759.86" as="sourcePoint" />
            <mxPoint x="830" y="1759.86" as="targetPoint" />
          </mxGeometry>
        </mxCell>
        <mxCell id="YUDjFduZvXWAR3VUE5b8-116" value="d" style="edgeLabel;html=1;align=center;verticalAlign=middle;resizable=0;points=[];" vertex="1" connectable="0" parent="YUDjFduZvXWAR3VUE5b8-113">
          <mxGeometry x="0.1463" y="-1" relative="1" as="geometry">
            <mxPoint as="offset" />
          </mxGeometry>
        </mxCell>
      </root>
    </mxGraphModel>
  </diagram>
</mxfile>
